<svg width="111" height="25" viewBox="0 0 111 25" fill="none" xmlns="http://www.w3.org/2000/svg">
<rect x="0.725342" y="0.331146" width="110" height="24" rx="8" fill="#FDCFF3"/>
<path d="M18.1316 18.3311V6.87802H19.6472V11.5811H25.6003V6.87802H27.116V18.3311H25.6003V12.9327H19.6472V18.3311H18.1316ZM29.1863 12.753C29.1863 10.852 29.6967 9.365 30.7175 8.29208C31.7384 7.21396 33.0561 6.6749 34.6707 6.6749C35.7279 6.6749 36.6811 6.9275 37.53 7.43271C38.379 7.93792 39.0248 8.64365 39.4675 9.5499C39.9154 10.4509 40.1394 11.4744 40.1394 12.6202C40.1394 13.7817 39.905 14.8207 39.4363 15.7374C38.9675 16.6541 38.3035 17.3494 37.4441 17.8233C36.5847 18.2921 35.6576 18.5265 34.6628 18.5265C33.5847 18.5265 32.6212 18.266 31.7722 17.7452C30.9233 17.2244 30.28 16.5134 29.8425 15.6124C29.405 14.7114 29.1863 13.7582 29.1863 12.753ZM30.7488 12.7765C30.7488 14.1567 31.1186 15.2452 31.8582 16.0421C32.6029 16.8338 33.5352 17.2296 34.655 17.2296C35.7957 17.2296 36.7332 16.8285 37.4675 16.0265C38.2071 15.2244 38.5769 14.0864 38.5769 12.6124C38.5769 11.6801 38.4181 10.8676 38.1003 10.1749C37.7878 9.47698 37.3269 8.93792 36.7175 8.55771C36.1134 8.17229 35.4337 7.97958 34.6785 7.97958C33.6056 7.97958 32.6811 8.34938 31.905 9.08896C31.1342 9.82333 30.7488 11.0525 30.7488 12.7765ZM42.0378 18.3311V6.87802H46.3347C47.2097 6.87802 47.9102 6.99521 48.4363 7.22958C48.9675 7.45875 49.3816 7.81552 49.6785 8.2999C49.9806 8.77906 50.1316 9.28167 50.1316 9.80771C50.1316 10.2973 49.9988 10.7582 49.7332 11.1905C49.4675 11.6228 49.0665 11.9718 48.53 12.2374C49.2227 12.4405 49.754 12.7869 50.1238 13.2765C50.4988 13.766 50.6863 14.3442 50.6863 15.0108C50.6863 15.5473 50.5717 16.0473 50.3425 16.5108C50.1186 16.9692 49.8399 17.3233 49.5066 17.5733C49.1733 17.8233 48.754 18.0134 48.2488 18.1436C47.7488 18.2686 47.1342 18.3311 46.405 18.3311H42.0378ZM43.5535 11.6905H46.03C46.7019 11.6905 47.1837 11.6463 47.4753 11.5577C47.8608 11.4431 48.1498 11.253 48.3425 10.9874C48.5404 10.7218 48.6394 10.3884 48.6394 9.9874C48.6394 9.60719 48.5483 9.27385 48.366 8.9874C48.1837 8.69573 47.9233 8.49781 47.5847 8.39365C47.2462 8.28427 46.6654 8.22958 45.8425 8.22958H43.5535V11.6905ZM43.5535 16.9796H46.405C46.8946 16.9796 47.2384 16.9614 47.4363 16.9249C47.7852 16.8624 48.0769 16.7582 48.3113 16.6124C48.5457 16.4666 48.7384 16.2556 48.8894 15.9796C49.0404 15.6983 49.116 15.3754 49.116 15.0108C49.116 14.5838 49.0066 14.214 48.7878 13.9015C48.5691 13.5838 48.2644 13.3624 47.8738 13.2374C47.4884 13.1072 46.9311 13.0421 46.2019 13.0421H43.5535V16.9796ZM52.7957 6.87802H54.1707V15.9483L60.2644 6.87802H61.7878V18.3311H60.4128V9.28427L54.3113 18.3311H52.7957V6.87802ZM64.3191 18.3311V6.87802H65.8347V11.5811H71.7878V6.87802H73.3035V18.3311H71.7878V12.9327H65.8347V18.3311H64.3191ZM75.8582 6.87802H77.3738V11.8936C78.0665 11.8936 78.5535 11.7608 78.8347 11.4952C79.116 11.2244 79.4753 10.5785 79.9128 9.55771C80.2306 8.80771 80.491 8.27906 80.6941 7.97177C80.9024 7.65927 81.1967 7.39885 81.5769 7.19052C81.9571 6.97698 82.3764 6.87021 82.8347 6.87021C83.4181 6.87021 83.7253 6.87542 83.7566 6.88583V8.19833C83.7045 8.19833 83.6029 8.19573 83.4519 8.19052C83.2852 8.18531 83.1837 8.18271 83.1472 8.18271C82.6628 8.18271 82.3035 8.2999 82.0691 8.53427C81.8295 8.76865 81.5561 9.26865 81.2488 10.0343C80.8634 11.003 80.5378 11.615 80.2722 11.8702C80.0066 12.1202 79.6889 12.3207 79.3191 12.4718C80.0587 12.6749 80.7878 13.3572 81.5066 14.5186L83.866 18.3311H81.9832L80.0691 15.2218C79.5431 14.3624 79.1029 13.7739 78.7488 13.4561C78.3946 13.1332 77.9363 12.9718 77.3738 12.9718V18.3311H75.8582V6.87802ZM83.905 18.3311L88.3035 6.87802H89.9363L94.6238 18.3311H92.8972L91.5613 14.8624H86.7722L85.5144 18.3311H83.905ZM87.2097 13.628H91.0925L89.8972 10.4561C89.5326 9.4926 89.2618 8.70094 89.0847 8.08115C88.9389 8.81552 88.7332 9.54469 88.4675 10.2686L87.2097 13.628Z" fill="#2F2F2F"/>
</svg>
