<svg width="136" height="26" viewBox="0 0 136 26" fill="none" xmlns="http://www.w3.org/2000/svg">
<rect x="0.725342" y="0.662292" width="134.41" height="24" rx="8" fill="#FFCF56"/>
<path d="M18.1941 7.20917H27.2019V18.6623H25.6785V8.56073H19.7097V18.6623H18.1941V7.20917ZM29.2175 13.0842C29.2175 11.1831 29.7279 9.69615 30.7488 8.62323C31.7696 7.5451 33.0873 7.00604 34.7019 7.00604C35.7592 7.00604 36.7123 7.25865 37.5613 7.76385C38.4102 8.26906 39.0561 8.97479 39.4988 9.88104C39.9467 10.7821 40.1707 11.8055 40.1707 12.9514C40.1707 14.1128 39.9363 15.1519 39.4675 16.0685C38.9988 16.9852 38.3347 17.6805 37.4753 18.1545C36.616 18.6232 35.6889 18.8576 34.6941 18.8576C33.616 18.8576 32.6524 18.5972 31.8035 18.0764C30.9545 17.5555 30.3113 16.8446 29.8738 15.9435C29.4363 15.0425 29.2175 14.0894 29.2175 13.0842ZM30.78 13.1076C30.78 14.4878 31.1498 15.5764 31.8894 16.3732C32.6342 17.1649 33.5665 17.5607 34.6863 17.5607C35.8269 17.5607 36.7644 17.1597 37.4988 16.3576C38.2384 15.5555 38.6082 14.4175 38.6082 12.9435C38.6082 12.0113 38.4493 11.1988 38.1316 10.506C37.8191 9.80813 37.3582 9.26906 36.7488 8.88885C36.1446 8.50344 35.4649 8.31073 34.7097 8.31073C33.6368 8.31073 32.7123 8.68052 31.9363 9.4201C31.1654 10.1545 30.78 11.3836 30.78 13.1076ZM50.3035 14.6467L51.8191 15.0295C51.5014 16.2743 50.9285 17.2248 50.1003 17.881C49.2774 18.5321 48.2696 18.8576 47.0769 18.8576C45.8425 18.8576 44.8373 18.6076 44.0613 18.1076C43.2904 17.6024 42.7019 16.8732 42.2957 15.9201C41.8946 14.967 41.6941 13.9435 41.6941 12.8498C41.6941 11.6571 41.9207 10.618 42.3738 9.7326C42.8321 8.84198 43.4806 8.1675 44.3191 7.70917C45.1628 7.24563 46.0899 7.01385 47.1003 7.01385C48.2462 7.01385 49.2097 7.30552 49.991 7.88885C50.7722 8.47219 51.3165 9.2925 51.6238 10.3498L50.1316 10.7014C49.866 9.86802 49.4806 9.26125 48.9753 8.88104C48.4701 8.50083 47.8347 8.31073 47.0691 8.31073C46.1889 8.31073 45.4519 8.52167 44.8582 8.94354C44.2696 9.36542 43.8556 9.93313 43.616 10.6467C43.3764 11.355 43.2566 12.0868 43.2566 12.842C43.2566 13.8159 43.3972 14.6675 43.6785 15.3967C43.9649 16.1206 44.4076 16.6623 45.0066 17.0217C45.6056 17.381 46.254 17.5607 46.9519 17.5607C47.8009 17.5607 48.5196 17.3159 49.1082 16.8264C49.6967 16.3368 50.0951 15.6102 50.3035 14.6467ZM53.9988 7.20917H61.1707V18.6623H59.655V8.56073H55.5144V14.4592C55.5144 15.6571 55.4571 16.5347 55.3425 17.092C55.2332 17.6493 54.9988 18.0842 54.6394 18.3967C54.28 18.704 53.8243 18.8576 53.2722 18.8576C52.9389 18.8576 52.5378 18.7951 52.0691 18.6701L52.3269 17.3264C52.5769 17.4305 52.7904 17.4826 52.9675 17.4826C53.3113 17.4826 53.5691 17.355 53.741 17.0998C53.9128 16.8394 53.9988 16.23 53.9988 15.2717V7.20917ZM63.6941 18.6623V7.20917H71.9753V8.56073H65.2097V12.0685H71.5457V13.4123H65.2097V17.3107H72.241V18.6623H63.6941ZM75.3738 7.20917H82.3425V17.3107H83.3738V21.3342H82.0222V18.6623H74.4519V21.3342H73.1003V17.3107H73.991C74.9128 15.9201 75.3738 13.1102 75.3738 8.88104V7.20917ZM80.8269 8.56073H76.8347V9.14667C76.8347 10.1206 76.7462 11.454 76.5691 13.1467C76.3972 14.8342 76.0561 16.2222 75.5457 17.3107H80.8269V8.56073ZM85.2253 18.6623V7.20917H86.741V11.9123H92.6941V7.20917H94.2097V18.6623H92.6941V13.2639H86.741V18.6623H85.2253ZM96.7644 7.20917H98.1394V16.2795L104.233 7.20917H105.757V18.6623H104.382V9.61542L98.28 18.6623H96.7644V7.20917ZM108.264 7.20917H109.639V16.2795L115.733 7.20917H117.257V18.6623H115.882V9.61542L109.78 18.6623H108.264V7.20917ZM113.96 4.4826H114.921C114.843 5.13365 114.603 5.63365 114.202 5.9826C113.806 6.33156 113.277 6.50604 112.616 6.50604C111.949 6.50604 111.415 6.33417 111.014 5.99042C110.619 5.64146 110.382 5.13885 110.303 4.4826H111.264C111.337 4.83677 111.481 5.1024 111.694 5.27948C111.913 5.45135 112.205 5.53729 112.569 5.53729C112.991 5.53729 113.309 5.45396 113.522 5.28729C113.741 5.11542 113.887 4.84719 113.96 4.4826Z" fill="#2F2F2F"/>
</svg>
